<svg width="371.70909423828124px" height="90.25454711914062px" xmlns="http://www.w3.org/2000/svg" viewBox="64.14545288085938 29.872726440429688 371.70909423828124 90.25454711914062" style="background: rgba(0, 0, 0, 0);" preserveAspectRatio="xMidYMid"><defs><filter id="editing-jagged" x="-100%" y="-100%" width="300%" height="300%"><feTurbulence result="turb" baseFrequency="0.1" numOctaves="1" seed="1"></feTurbulence><feDisplacementMap in="SourceGraphic" in2="turb" scale="10"></feDisplacementMap></filter></defs><g filter="url(#editing-jagged)"><g transform="translate(63.49999678134918, 99)"><path d="M34.50-13.25L34.50-13.25L34.50-13.25Q36.16-12.03 36.16-9.44L36.16-9.44L36.16-9.44Q36.16-6.85 35.04-5.02L35.04-5.02L35.04-5.02Q33.92-3.20 31.74-1.79L31.74-1.79L31.74-1.79Q27.07 1.22 18.91 1.22L18.91 1.22L18.91 1.22Q10.75 1.22 6.30-3.04L6.30-3.04L6.30-3.04Q1.86-7.30 1.86-14.85L1.86-14.85L1.86-14.85Q1.86-25.54 7.42-33.66L7.42-33.66L7.42-33.66Q11.65-39.68 19.20-42.24L19.20-42.24L19.20-42.24Q23.10-43.52 26.94-43.52L26.94-43.52L26.94-43.52Q30.78-43.52 33.15-43.01L33.15-43.01L33.15-43.01Q35.52-42.50 37.31-41.47L37.31-41.47L37.31-41.47Q41.22-39.23 41.22-35.65L41.22-35.65L41.22-35.65Q41.22-32.38 38.14-29.95L38.14-29.95L38.14-29.95Q35.33-27.78 33.02-27.78L33.02-27.78L33.02-27.78Q30.72-27.78 29.76-28.10L29.76-28.10L29.76-28.10Q30.02-30.40 30.02-31.90L30.02-31.90L30.02-31.90Q30.02-33.41 29.95-34.50L29.95-34.50L29.95-34.50Q29.89-35.58 29.57-36.61L29.57-36.61L29.57-36.61Q28.93-38.98 26.98-38.98L26.98-38.98L26.98-38.98Q25.02-38.98 23.07-37.15L23.07-37.15L23.07-37.15Q21.12-35.33 19.46-32.26L19.46-32.26L19.46-32.26Q15.68-25.28 15.68-17.02L15.68-17.02L15.68-17.02Q15.68-13.06 17.92-10.78L17.92-10.78L17.92-10.78Q20.16-8.51 24.96-8.51L24.96-8.51L24.96-8.51Q28.54-8.51 31.94-10.88L31.94-10.88L31.94-10.88Q33.41-11.90 34.50-13.25ZM61.50-17.98L61.50-17.98L61.50-17.98Q63.81-22.08 63.81-26.24L63.81-26.24L63.81-26.24Q63.81-28.99 61.82-28.99L61.82-28.99L61.82-28.99Q60.29-28.99 58.69-26.37L58.69-26.37L58.69-26.37Q57.02-23.74 56.51-20.35L56.51-20.35L53.18 0L39.94 1.28L46.46-32.64L57.02-33.92L55.87-27.46L55.87-27.46Q59.01-33.92 66.05-33.92L66.05-33.92L66.05-33.92Q69.76-33.92 71.78-32L71.78-32L71.78-32Q73.79-30.08 73.79-26.14L73.79-26.14L73.79-26.14Q73.79-22.21 71.20-19.71L71.20-19.71L71.20-19.71Q68.61-17.22 64.19-17.22L64.19-17.22L64.19-17.22Q62.27-17.22 61.50-17.98ZM100.74-10.82L100.74-10.82L100.74-10.82Q102.34-9.73 102.34-7.33L102.34-7.33L102.34-7.33Q102.34-4.93 101.12-3.39L101.12-3.39L101.12-3.39Q99.90-1.86 97.92-0.83L97.92-0.83L97.92-0.83Q93.82 1.28 89.41 1.28L89.41 1.28L89.41 1.28Q84.99 1.28 82.40 0.32L82.40 0.32L82.40 0.32Q79.81-0.64 78.08-2.43L78.08-2.43L78.08-2.43Q74.69-5.82 74.69-12.03L74.69-12.03L74.69-12.03Q74.69-21.70 79.94-27.58L79.94-27.58L79.94-27.58Q85.57-33.92 95.36-33.92L95.36-33.92L95.36-33.92Q101.44-33.92 104.45-31.36L104.45-31.36L104.45-31.36Q106.69-29.44 106.69-26.30L106.69-26.30L106.69-26.30Q106.69-15.04 87.23-15.04L87.23-15.04L87.23-15.04Q86.98-13.38 86.98-11.97L86.98-11.97L86.98-11.97Q86.98-9.02 88.29-7.90L88.29-7.90L88.29-7.90Q89.60-6.78 92.03-6.78L92.03-6.78L92.03-6.78Q94.46-6.78 97.06-7.90L97.06-7.90L97.06-7.90Q99.65-9.02 100.74-10.82ZM87.68-17.79L87.68-17.79L87.68-17.79Q92.22-17.79 94.85-20.61L94.85-20.61L94.85-20.61Q97.47-23.30 97.47-27.58L97.47-27.58L97.47-27.58Q97.47-29.06 96.93-29.86L96.93-29.86L96.93-29.86Q96.38-30.66 95.30-30.66L95.30-30.66L95.30-30.66Q94.21-30.66 93.28-30.24L93.28-30.24L93.28-30.24Q92.35-29.82 91.39-28.42L91.39-28.42L91.39-28.42Q89.02-25.22 87.68-17.79ZM111.65-1.92L111.65-1.92L111.65-1.92Q110.14-3.58 109.47-6.21L109.47-6.21L109.47-6.21Q108.80-8.83 108.80-13.12L108.80-13.12L108.80-13.12Q108.80-17.41 110.27-21.31L110.27-21.31L110.27-21.31Q111.74-25.22 114.43-28.03L114.43-28.03L114.43-28.03Q119.94-33.92 129.02-33.92L129.02-33.92L129.02-33.92Q132.29-33.92 134.66-32.83L134.66-32.83L145.60-33.92L140.86-8.96L140.86-8.96Q140.67-8.19 140.67-6.78L140.67-6.78L140.67-6.78Q140.67-5.38 141.54-4.48L141.54-4.48L141.54-4.48Q142.40-3.58 143.68-3.46L143.68-3.46L143.68-3.46Q143.04-1.28 140.70 0L140.70 0L140.70 0Q138.37 1.28 135.74 1.28L135.74 1.28L135.74 1.28Q133.12 1.28 131.36 0.29L131.36 0.29L131.36 0.29Q129.60-0.70 129.09-2.37L129.09-2.37L129.09-2.37Q128.06-0.77 125.89 0.26L125.89 0.26L125.89 0.26Q123.71 1.28 120.80 1.28L120.80 1.28L120.80 1.28Q117.89 1.28 115.52 0.51L115.52 0.51L115.52 0.51Q113.15-0.26 111.65-1.92ZM125.15-27.90L125.15-27.90L125.15-27.90Q124.42-26.75 123.78-24.80L123.78-24.80L123.78-24.80Q123.14-22.85 122.08-17.63L122.08-17.63L122.08-17.63Q121.02-12.42 121.02-8.70L121.02-8.70L121.02-8.70Q121.02-4.99 121.60-3.90L121.60-3.90L121.60-3.90Q122.18-2.82 123.20-2.82L123.20-2.82L123.20-2.82Q125.25-2.82 126.75-4.77L126.75-4.77L126.75-4.77Q128.26-6.72 128.83-10.18L128.83-10.18L132.22-28.93L132.22-28.93Q130.88-30.08 129.31-30.08L129.31-30.08L129.31-30.08Q127.74-30.08 126.82-29.57L126.82-29.57L126.82-29.57Q125.89-29.06 125.15-27.90ZM150.08-6.40L150.08-6.40L150.08-6.40Q150.08-8.13 150.98-12.48L150.98-12.48L154.37-29.76L150.59-29.76L150.85-31.68L150.85-31.68Q158.53-33.98 165.95-39.62L165.95-39.62L169.02-39.62L167.49-32.64L172.48-32.64L171.90-29.76L166.98-29.76L163.71-12.48L163.71-12.48Q162.88-8.51 162.88-7.17L162.88-7.17L162.88-7.17Q162.88-4.10 165.57-3.46L165.57-3.46L165.57-3.46Q164.93-1.28 162.62 0L162.62 0L162.62 0Q160.32 1.28 157.06 1.28L157.06 1.28L157.06 1.28Q153.79 1.28 151.94-0.77L151.94-0.77L151.94-0.77Q150.08-2.82 150.08-6.40ZM187.52-3.52L187.52-3.52L187.52-3.52Q185.54 1.28 179.20 1.28L179.20 1.28L179.20 1.28Q175.94 1.28 173.89-0.96L173.89-0.96L173.89-0.96Q172.16-2.94 172.16-4.93L172.16-4.93L172.16-4.93Q172.16-10.11 174.53-20.22L174.53-20.22L176.90-32.64L189.89-33.92L185.98-13.70L185.98-13.70Q184.90-8.96 184.90-7.30L184.90-7.30L184.90-7.30Q184.90-3.65 187.52-3.52ZM178.05-41.54L178.05-41.54L178.05-41.54Q178.05-44.03 180.13-45.38L180.13-45.38L180.13-45.38Q182.21-46.72 185.22-46.72L185.22-46.72L185.22-46.72Q188.22-46.72 190.05-45.38L190.05-45.38L190.05-45.38Q191.87-44.03 191.87-41.54L191.87-41.54L191.87-41.54Q191.87-39.04 189.86-37.76L189.86-37.76L189.86-37.76Q187.84-36.48 184.83-36.48L184.83-36.48L184.83-36.48Q181.82-36.48 179.94-37.76L179.94-37.76L179.94-37.76Q178.05-39.04 178.05-41.54ZM216.19-31.55L216.19-31.55L216.19-31.55Q218.30-33.92 221.95-33.92L221.95-33.92L221.95-33.92Q224.19-33.92 225.92-32.70L225.92-32.70L225.92-32.70Q227.65-31.49 227.65-29.22L227.65-29.22L227.65-29.22Q227.65-26.94 226.94-24.51L226.94-24.51L226.94-24.51Q226.24-22.08 225.15-19.58L225.15-19.58L225.15-19.58Q222.98-14.72 219.97-10.69L219.97-10.69L219.97-10.69Q215.74-4.86 211.68-1.79L211.68-1.79L211.68-1.79Q207.62 1.28 203.20 1.28L203.20 1.28L203.20 1.28Q199.62 1.28 197.44 0.45L197.44 0.45L197.44 0.45Q197.06-12.99 196.58-17.79L196.58-17.79L196.58-17.79Q196.10-22.59 195.71-25.22L195.71-25.22L195.71-25.22Q195.07-30.34 193.15-31.55L193.15-31.55L193.15-31.55Q194.62-32.83 196.06-33.38L196.06-33.38L196.06-33.38Q197.50-33.92 200.48-33.92L200.48-33.92L200.48-33.92Q203.46-33.92 205.57-31.58L205.57-31.58L205.57-31.58Q207.68-29.25 208.10-25.12L208.10-25.12L208.10-25.12Q208.51-20.99 208.51-16L208.51-16L208.51-16Q208.51-11.01 208.13-4.99L208.13-4.99L208.13-4.99Q210.11-6.40 212.22-10.69L212.22-10.69L212.22-10.69Q215.10-16.64 216.13-23.81L216.13-23.81L216.13-23.81Q216.45-25.98 216.45-28.29L216.45-28.29L216.45-28.29Q216.45-30.59 216.19-31.55ZM255.30-10.82L255.30-10.82L255.30-10.82Q256.90-9.73 256.90-7.33L256.90-7.33L256.90-7.33Q256.90-4.93 255.68-3.39L255.68-3.39L255.68-3.39Q254.46-1.86 252.48-0.83L252.48-0.83L252.48-0.83Q248.38 1.28 243.97 1.28L243.97 1.28L243.97 1.28Q239.55 1.28 236.96 0.32L236.96 0.32L236.96 0.32Q234.37-0.64 232.64-2.43L232.64-2.43L232.64-2.43Q229.25-5.82 229.25-12.03L229.25-12.03L229.25-12.03Q229.25-21.70 234.50-27.58L234.50-27.58L234.50-27.58Q240.13-33.92 249.92-33.92L249.92-33.92L249.92-33.92Q256-33.92 259.01-31.36L259.01-31.36L259.01-31.36Q261.25-29.44 261.25-26.30L261.25-26.30L261.25-26.30Q261.25-15.04 241.79-15.04L241.79-15.04L241.79-15.04Q241.54-13.38 241.54-11.97L241.54-11.97L241.54-11.97Q241.54-9.02 242.85-7.90L242.85-7.90L242.85-7.90Q244.16-6.78 246.59-6.78L246.59-6.78L246.59-6.78Q249.02-6.78 251.62-7.90L251.62-7.90L251.62-7.90Q254.21-9.02 255.30-10.82ZM242.24-17.79L242.24-17.79L242.24-17.79Q246.78-17.79 249.41-20.61L249.41-20.61L249.41-20.61Q252.03-23.30 252.03-27.58L252.03-27.58L252.03-27.58Q252.03-29.06 251.49-29.86L251.49-29.86L251.49-29.86Q250.94-30.66 249.86-30.66L249.86-30.66L249.86-30.66Q248.77-30.66 247.84-30.24L247.84-30.24L247.84-30.24Q246.91-29.82 245.95-28.42L245.95-28.42L245.95-28.42Q243.58-25.22 242.24-17.79ZM311.17-10.69L311.17-10.69Q306.94-4.86 302.88-1.79L302.88-1.79L302.88-1.79Q298.82 1.28 294.62 1.28L294.62 1.28L294.62 1.28Q290.43 1.28 288.96 0.45L288.96 0.45L288.96-13.63L288.96-13.63Q285.31-3.90 278.78-0.13L278.78-0.13L278.78-0.13Q276.42 1.28 274.18 1.28L274.18 1.28L274.18 1.28Q269.89 1.28 268.03 0.45L268.03 0.45L268.03 0.45Q267.58-14.21 267.20-18.27L267.20-18.27L267.20-18.27Q266.82-22.34 266.50-24.83L266.50-24.83L266.50-24.83Q265.86-29.82 263.68-31.87L263.68-31.87L263.68-31.87Q266.43-33.92 270.27-33.92L270.27-33.92L270.27-33.92Q277.70-33.92 278.72-24.70L278.72-24.70L278.72-24.70Q278.98-22.53 278.98-20.22L278.98-20.22L278.98-20.22Q278.98-16.77 278.21-4.74L278.21-4.74L278.21-4.74Q279.74-5.44 281.38-7.97L281.38-7.97L281.38-7.97Q283.01-10.50 284.35-13.95L284.35-13.95L284.35-13.95Q287.36-21.95 287.36-28.86L287.36-28.86L287.36-28.86Q287.36-29.95 287.07-31.10L287.07-31.10L287.07-31.10Q286.78-32.26 286.46-32.58L286.46-32.58L286.46-32.58Q288.70-33.92 292.13-33.92L292.13-33.92L292.13-33.92Q295.55-33.92 297.18-31.58L297.18-31.58L297.18-31.58Q298.82-29.25 299.26-24.96L299.26-24.96L299.26-24.96Q299.78-19.52 299.78-16.26L299.78-16.26L299.78-16.26Q299.78-11.71 299.33-4.99L299.33-4.99L299.33-4.99Q302.53-7.30 305.15-14.85L305.15-14.85L305.15-14.85Q307.78-22.40 307.78-27.78L307.78-27.78L307.78-27.78Q307.78-30.14 307.39-31.55L307.39-31.55L307.39-31.55Q309.50-33.92 313.15-33.92L313.15-33.92L313.15-33.92Q315.39-33.92 317.02-32.70L317.02-32.70L317.02-32.70Q318.66-31.49 318.66-29.22L318.66-29.22L318.66-29.22Q318.66-26.94 317.98-24.51L317.98-24.51L317.98-24.51Q317.31-22.08 316.22-19.58L316.22-19.58L316.22-19.58Q314.11-14.59 311.17-10.69L311.17-10.69ZM335.74-3.52L335.74-3.52L335.74-3.52Q333.76 1.28 327.42 1.28L327.42 1.28L327.42 1.28Q324.16 1.28 322.11-0.96L322.11-0.96L322.11-0.96Q320.38-2.94 320.38-4.93L320.38-4.93L320.38-4.93Q320.38-10.11 322.75-20.22L322.75-20.22L325.12-32.64L338.11-33.92L334.21-13.70L334.21-13.70Q333.12-8.96 333.12-7.30L333.12-7.30L333.12-7.30Q333.12-3.65 335.74-3.52ZM326.27-41.54L326.27-41.54L326.27-41.54Q326.27-44.03 328.35-45.38L328.35-45.38L328.35-45.38Q330.43-46.72 333.44-46.72L333.44-46.72L333.44-46.72Q336.45-46.72 338.27-45.38L338.27-45.38L338.27-45.38Q340.10-44.03 340.10-41.54L340.10-41.54L340.10-41.54Q340.10-39.04 338.08-37.76L338.08-37.76L338.08-37.76Q336.06-36.48 333.06-36.48L333.06-36.48L333.06-36.48Q330.05-36.48 328.16-37.76L328.16-37.76L328.16-37.76Q326.27-39.04 326.27-41.54ZM353.50 0.64L353.50 0.64L353.50 0.64Q350.46 0 348.90-0.29L348.90-0.29L348.90-0.29Q347.33-0.58 345.50-0.58L345.50-0.58L345.50-0.58Q343.68-0.58 341.89 0.06L341.89 0.06L341.89 0.06Q340.93-0.51 340.32-1.66L340.32-1.66L340.32-1.66Q339.71-2.82 339.71-4.61L339.71-4.61L339.71-4.61Q339.71-8.38 343.55-11.26L343.55-11.26L359.81-22.98L359.81-22.98Q355.26-24.26 351.14-24.26L351.14-24.26L351.14-24.26Q347.01-24.26 345.54-21.44L345.54-21.44L345.54-21.44Q343.36-24 343.36-28.03L343.36-28.03L343.36-28.03Q343.36-30.72 345.31-32.48L345.31-32.48L345.31-32.48Q347.26-34.24 351.36-34.24L351.36-34.24L351.36-34.24Q353.66-34.24 355.74-33.95L355.74-33.95L355.74-33.95Q357.82-33.66 359.68-33.41L359.68-33.41L363.14-32.90L363.14-32.90Q364.80-32.64 366.50-32.64L366.50-32.64L366.50-32.64Q368.19-32.64 369.47-33.34L369.47-33.34L369.47-33.34Q371.14-31.81 371.14-29.70L371.14-29.70L371.14-29.70Q371.14-26.37 367.04-22.91L367.04-22.91L350.85-10.82L350.85-10.82Q355.84-9.34 358.40-9.34L358.40-9.34L358.40-9.34Q363.78-9.34 366.08-11.90L366.08-11.90L366.08-11.90Q367.87-9.86 367.87-6.30L367.87-6.30L367.87-6.30Q367.87-2.75 365.57-0.74L365.57-0.74L365.57-0.74Q363.26 1.28 359.10 1.28L359.10 1.28L359.10 1.28Q356.54 1.28 353.50 0.64Z" fill="#444"></path></g></g><style>text {
  font-size: 64px;
  font-family: Arial Black;
  dominant-baseline: central;
  text-anchor: middle;
}</style></svg>